<?xml version="1.0" encoding="UTF-8"?>
<svg id="Layer_2" data-name="Layer 2" xmlns="http://www.w3.org/2000/svg" viewBox="0 0 261.41 45.56">
  <g id="Squared">
    <g>
      <path d="M239.44,0c-12.14,0-21.97,10.2-21.97,22.78s9.84,22.78,21.97,22.78,21.97-10.2,21.97-22.78S251.57,0,239.44,0ZM247.59,23.28l-6.86,17.09c-.13.34-.42.95-.88,1.18-.14.07-.28.11-.43.11-.67,0-1.08-.71-1.31-1.3l-6.84-17.09c-.09-.23-.07-.5.07-.71.14-.21.36-.34.61-.34h14.97c.24.01.47.14.61.35.13.21.16.48.06.71ZM249.08,20.05c-.43.22-.91.35-1.42.37-.93.05-1.53-.14-1.9-.37-.02,0-.03.02-.05.02-.45.24-.9.36-1.33.36-.64,0-1.35-.25-1.76-.42-.38.18-1.02.41-1.64.41-.65,0-1.08-.03-1.55-.28,0,0-.01,0-.02,0-.49.25-.94.27-1.53.27-.63,0-1.27-.24-1.64-.41-.41.17-1.12.41-1.76.41-.54,0-1.03-.19-1.38-.38-.04.03-.09.05-.14.08-.45.23-1.04.33-1.76.29-1.88-.1-3.24-1.6-3.24-3.56,0-1.42.87-2.18,1.36-2.49.47-4.21,2.19-7.11,5.12-8.63,2.11-1.09,4.21-1.09,5-1.09,5.83,0,9.4,3.45,10.1,9.72.63.39,1.36,1.2,1.36,2.5,0,1.4-.69,2.59-1.83,3.18Z" style="fill: #231f20;"/>
      <g>
        <path d="M33.63,21.99c0,.91.14,1.78.41,2.63.27.86.9,1.76,1.91,2.72,1,.95,1.95,1.56,2.85,1.82,1.52.44,3.02.65,4.49.63,2.96-.03,6.63-1.19,11.01-3.51-.74,1.26-1.92,2.81-3.52,4.65-2.25,2.56-3.56,4.1-3.94,4.61-.27.37-.46.73-.58,1.07-.2.48-.26.84-.29,1.05-.06.4-.08,1.59,1.11,2.52,1.19.93,1.35.93,2.26.56.5-.2.95-.52,1.25-.76.16-.11.29-.21.36-.3.02-.02.03-.04.05-.05,0,0,0,0,0,0h0c2.71-3.16,5.77-7.14,9.19-11.96.99-1.38,1.97-3.02,2.75-4.66.13-.28.28-.58.43-.89h0s2.92-4.81,2.69-8.45c-.2-1.55-1.22-3.87-3.39-5.68-.31-.28-.63-.52-.95-.71-2.82-1.88-6.69-3.72-14.43-.76,0,0-.01,0-.02,0-2.42.89-4.91,2.42-7.48,4.61-.76.65-1.45,1.3-2.08,1.96-.63.65-1.18,1.29-1.59,1.9,0,0,0,0,0,.02-1.67,2.29-2.5,4.61-2.48,6.99ZM57.84,15.18c-2.08,2.17-4.12,3.43-7.14,5.09-3.41,1.89-6.38,3.32-9.02,2.55-1.87-.54-1.89-2.17-1.73-2.7.29-1.04,1.15-2.25,1.56-2.8,1.15-1.57,2.08-2.37,3.24-3.27,3.14-2.43,5.56-3.41,9.02-3.83,2.11-.24,3.48.23,4.01.47.08.04.17.08.24.12h0c2.2,1.25,1.13,3.02-.19,4.38Z" style="fill: #231f20;"/>
        <path d="M203.71,36.66c-.09.15-.37.77-.46.96-1.16.82-3.4,1.73-3.73,1.75-.21-.01-2.78-.88-4.39-1.54-.84-.34.21-1.31.28-1.44,5.59-10.59-7.93-23.17-8.95-24.23-.84,4.88-1.14,8.27-2.69,13.27-.71,2.29-.82,4.24-1.56,6.21-.09.23-2.51.51-2.83.8-.48.42-.88.63-.91.69-.24-.01-.6-.05-1.06-.1-1.18-.81-2.12-1.68-2.87-2.55-4.41-5.07-4.87-8.13-7.42-12.34-1.61,3.35-1.49,9.8-2.37,13.32-.05.22-.32.48-.77.77-.46.29-1.28.68-1.52.69-.12,0-.27.01-.32-.04-.6-.57-.87-1.02-1-1.22-.2-.33-2.55-1.27-2.56-1.88-.04-1.28.34-3.74,1.71-7.86.84-2.51,1.04-6.5,2-9.56.67-.12,6.06-.12,6.3.05,4.32,2.96,3.08,6.44,6.42,10.18,2.22-4.78,2.71-9.84,3.36-14.94.21-.07,3.48-1.81,3.65-1.83.7-.08,1.46-.53,2.12-.45,14.34,1.86,23.95,24.26,19.58,31.27h0Z" style="fill: #231f20;"/>
        <path d="M160.56,39.38c-.32-.01-.69.07-1.13.24-.44.17-.74.26-.89.25-.79-.03-2.13.2-2.53-.67-.15-.32-.51-1.05-.97-1.55-1.56-1.66-1.52-4.28-4.06-7.75-.83.26-1.93.71-3.59,1.21-1.45.43-2.48.9-3.1,1.37l-1.98.75-3.3,1.49c-.06.03-.99.52-2.77,1.47-.97.52-2.46,1.28-3.42,1.72-.24-.1-.2-.87-.73-.89-.52-.52-1.65-2.78-1.53-3.83.04-.32.1-.59.18-.83l2.71-3.15c2.79-3.26,4.12-7.17,5.97-10.64,2.11-3.97,3.83-7.89,5.36-11.44l.68-1.6c.29-.66.89-.94,1.56-.94.27.42.57,1.03.92,1.84.36,2.82,2.07,7.84,2.58,9.48.6,1.92,1.17,4.11,2.53,6.39.25-.02-.2-.07.6-.27.67-.18,1.18-.26,1.53-.25.25.01.44.08.56.2.02.15-.13-.16.2.41.14.24,1.02,2.38.97,3.61-.33.22-.99.59-1.99,1.1,1.55,2.28,3.48,5.63,5.45,9.13.2.36.27,1.42.2,3.17h0ZM148.24,23.46c-.54-1.1-2.57-5.78-3.52-7.86-.3.54-.89,2.77-2.14,5.4-.94,1.98-3.16,6.45-3.28,6.72,1.26-.41,7.22-3.42,8.94-4.25h0Z" style="fill: #231f20;"/>
        <path d="M133.24,33.11c-3.46.72-6.92,1.46-10.36,2.23-2.06.47-5.97,1.42-11.73,2.84-1.71.42-3.08.65-4.13.7-.83-.89-3.52-4.5-3.07-5.6,2.92-7.07,13.23-22.47,13.4-27.41,0-.28,1.4-.34,2.2.41.05.05.79,1.3,1.24,2.25.95,3.37-1.86,6.69-3.76,11.54l-3.24,8.29c-.95,2.44.18,1.71.9,1.52,4.92-1.12,9.04-2.01,13.56-3.45.23-.07,1.44.56,1.68.52.54.1,1.88,2.36,2.92,2.62.12.77.24,1.95.37,3.55h0Z" style="fill: #231f20;"/>
        <path d="M89.82,39.93c-1.01,0-1.98.2-2.98.21-3.13.03-6.35-1.45-9.68-4.46-1.38-1.25-2.08-2.71-2.1-4.4,0-.87.23-1.56.71-2.07l.31-.04c.5-.08,1.85.79,2.07,1.16.35.58,1.83,1.44,2.1,1.74,1.85,2.06,2.39,1.71,4.75,2.3,2.22.56,12.85-5.33,11.83-10.51-.23-1.2-5.28-.73-9.86.05-2.41.42-3.96.46-4.54.46-.86,0-1.67-.08-2.43-.23-.41-.09-.91-.32-1.5-.7-3.52-2.32-1.6-6.43-.08-9.06,1.47-2.53,6.48-7.49,8.58-8.12,2.86-.87,14.47,5.46,14.45,5.3-.11,0,.05,3.72-2.05,4.87-2.09,1.15-4.39-.12-7.43-1.46-3.04-1.33-2.02-.75-3.88-1.69-2.3-1.17-5.13,4.46-5.08,6.33.31.19.96.57,1.2.57,3.68-.06-.18.05,10.49-.89,1.33-.11,3.07.2,3.92.28.96.1,2.58.41,3.3.94,1.42,1.03,2.27,1.65,2.86,3.52,2.25,7.21-6.17,14.63-14.99,15.9h0Z" style="fill: #231f20;"/>
        <path d="M32.44,23.95c0-.91-.14-1.78-.41-2.63-.27-.86-.9-1.76-1.91-2.72-1-.95-1.95-1.56-2.85-1.82-1.52-.44-3.02-.65-4.49-.63-2.96.03-6.63,1.19-11.01,3.51.74-1.26,1.92-2.81,3.52-4.65,2.25-2.56,3.56-4.1,3.93-4.61.28-.37.46-.73.58-1.07.2-.48.26-.84.29-1.05.06-.4.08-1.59-1.11-2.52-1.19-.93-1.35-.93-2.26-.56-.5.2-.95.52-1.25.77-.16.11-.29.21-.36.3-.01.02-.03.04-.05.05,0,0,0,0,0,0h0c-2.71,3.16-5.78,7.14-9.19,11.96-.99,1.39-1.98,3.02-2.75,4.66-.13.28-.28.58-.43.89h0S-.21,28.64.01,32.28c.2,1.55,1.22,3.87,3.39,5.68.31.28.63.52.95.71,2.82,1.88,6.69,3.72,14.44.76,0,0,.01,0,.02,0,2.42-.89,4.91-2.42,7.48-4.61.76-.65,1.45-1.3,2.08-1.96.63-.65,1.18-1.29,1.59-1.9,0,0,0-.01.01-.02,1.67-2.29,2.5-4.61,2.48-6.99ZM8.22,30.76c2.08-2.17,4.12-3.43,7.14-5.09,3.41-1.89,6.38-3.32,9.02-2.55,1.86.55,1.89,2.17,1.73,2.7-.29,1.04-1.15,2.25-1.56,2.81-1.15,1.57-2.08,2.37-3.24,3.27-3.14,2.43-5.56,3.41-9.02,3.83-2.11.24-3.48-.23-4.01-.47-.08-.04-.17-.08-.24-.12h0c-2.2-1.25-1.13-3.02.19-4.38Z" style="fill: #231f20;"/>
      </g>
    </g>
  </g>
</svg>