<?xml version="1.0" encoding="UTF-8"?>
<svg id="Layer_2" data-name="Layer 2" xmlns="http://www.w3.org/2000/svg" viewBox="0 0 595.28 117.43">
  <g id="Layer_1-2" data-name="Layer 1" image-rendering="optimizeQuality" shape-rendering="geometricPrecision" text-rendering="geometricPrecision">
    <g>
      <path d="M313.92,72.23c0-3.5,4.28-5.19,6.78-6.44,1.54-.77,2.92-1.46,4.45-2.23,3.27-1.64,5.92-1.39,9.14-.51,1.15.31,6.13,1.57,6.77,2.1.73.6,1.2,2,1.2,3.31,0,2.77.33,14.15-.43,15.99-.59,1.41-2.25,1.92-3.93,2.76-.81.4-1.42.79-2.28,1.21-2.83,1.41-6.98,4.17-9.64,4.17-2.16,0-6.5-2.47-8.44-3.62-.91-.55-1.54-1-2.11-1.96-.59-.99-.82-1.77-.92-3.15-.1-1.32-.03-2.59-.17-3.9l-.41-7.72ZM377,117.43h-1.8c-1.95-.08-3.86-.43-6.54-1.11-3.28-.82-7.76-1.41-10.65-2.87-3.26-1.64-4.73-3.69-7.28-6.24l-6.54-6.83c-2.16-2.16-1.38-2.06-2.51-4.18-.72.06-.94.38-1.5.68l-7.27,3.63c-.54.27-.91.45-1.46.72l-7.17,3.73c-.75.42-2.22.97-3.2,1.16-1.26.24-2.39.25-3.78.06-2.53-.35-4.05-1.36-6-2.72-1.72-1.21-3.29-2.44-5-3.72-3.24-2.43-7.13-4.6-8.57-8.72-.65-1.86-.69-3.79-.53-5.73.06-.69-.04-1.47.02-2.16l.29-4.07c.09-3.1.35-9.21,1.04-12.04,1.16-4.75,5.1-6.37,8.98-8.31.97-.48,1.94-.97,2.91-1.45l12.37-5.07c4.69-1.76,10.07.03,14.35,1.45.89.3,4.1,1.55,4.99.88.53-.4.64-1.65.49-2.59-.29-1.89-.09-4.22-.08-6.17,0-1.2-.15-1.82-.15-3.05.02-3.83-.86-4.41-3.37-6.08-1.47-.98-4.39-3.37-6.08-3.37-2.94,0-4.31.38-6.97.74-2.24.3-3.11.46-4.17,2.08-.61.94-2.91,7.57-3.42,9.08-.51,1.55-.94,3.14-2.5,3.75-1.2.46-4.13.45-5.64.61l-3.03.17c-2.96,0-6.4,1.46-6.4-2.91,0-2.22.99-5.91,1.44-8.15,1.04-5.19.41-5.08,4.26-7.66,3.32-2.23,6.55-4.63,10.14-6.42,1.11-.56,1.96-1.15,3.63-1.17l7.13.15c.85.01,1.19.16,2.17.15,1.28,0,3.44-.12,4.61.04,2.76.38,6.37,0,9.18.27,1.22.12,2.76.58,3.75,1.04,2.38,1.11,3.37,2.65,5.1,4.35.79.78,1.68,1.59,2.4,2.4,2.83,3.22,4.92,4.36,4.77,9.49l-.3,4.49c-.01.82.01,1.66.01,2.48,0,.92-.16,1.21-.15,2.17,0,.77.02,1.56,0,2.33-.01.85-.16,1.19-.15,2.17.03,5.55-.61,12.96-.58,18.46,0,1.02-.15,1.38-.15,2.32,0,3.1-.3,6.38-.28,9.16,0,1.44-.29,4.56-.29,6.68,0,2.57,2.31,7.2,3.66,9.42,1.65,2.72,3.18,5.31,6.37,6.57,4.25,1.68,8.37,1.67,12.9.83.72-.13,1.82-.44,2.51-.69,4.88-1.79,7.04-2.33,7.69-8.15.59-5.25.59-6.72,5.82-6.96l4.51-.29c1.26,0,2.92-.48,3.81.69.55.73.32,1.52.15,2.4-.69,3.55-1.56,6.91-2.42,10.37-.92,3.69-1.61,6.38-4.5,8.14-1.85,1.13-13.31,2.65-16.14,3.05-1.93.27-3.47.44-4.87.5h0ZM472.03,61.62c3.56,0,5.02.59,8.35,1.54.85.24,2.69.71,3.24,1.12.79.58,1.35,1.7,1.35,3.01v14.82c0,1.02-.37,1.77-.84,2.35-.61.74-9.66,5.16-10.64,5.64-1.39.69-2.72,1.75-4.79,1.75s-3.7-1.28-5.13-1.99c-3.92-1.94-6.07-2.31-6.2-8.04-.02-.95-.05-2.5-.18-3.45l-.26-3.38c-.07-2.52-.38-4.36.75-6.09.9-1.37,2.86-2.15,4.28-2.99,2.18-1.3,7.99-4.3,10.09-4.3h0ZM443.7,46.36c0,1.98,1.3,2.8,3.48,2.61,2.13-.19,10.59-.6,11.53-.97,1.69-.65,1.97-2.07,2.55-3.7.5-1.38,2.91-8.48,3.33-9.17.97-1.62,2.09-1.67,4.23-2.02,2.38-.4,4.11-.71,6.56-.71,1.83,0,3.78,1.63,5.38,2.76l2.41,1.66c.75.56,1.38,1.39,1.75,2.32.68,1.69.19,9.16.34,11.86.04.7.26,1.01.08,1.81-.46,2.05-3.02.77-4.93.13-3.05-1.02-8-2.38-11.28-2.38-2.63,0-8.6,2.55-11.38,3.74-.58.25-.86.42-1.5.68-2.89,1.19-9.29,4.42-11.33,5.96-4.6,3.44-3.65,6.19-4.4,12.89-.15,1.37-.02,2.79-.23,4.13l-.53,8.2c.07,6.87,4.36,9.07,9.06,12.6,1.71,1.28,3.27,2.45,4.98,3.74,3.19,2.39,5.19,3.29,9.78,2.82,2.36-.24,6.62-2.84,9.03-4.05.81-.41,11.03-5.81,11.63-5.81,1.04,0-.18,1.57,2.55,3.69l6.75,5.75c2.69,2.07,3.63,3.43,7.6,1.21l5.36-3.07c.84-.51,2.13-1.09,1.71-2.34-.41-1.2-3.19-3.27-4.32-4.26l-3.45-2.94c-1.16-1.05-.85-2.69-.59-4.52l.56-6.12c.12-.93.16-2.11.31-3.18.46-3.2.71-9.1,1.18-12.48.47-3.33.68-9.11,1.16-12.5.36-2.5.51-6.81.87-9.3,1.08-7.5-1.78-9.37-5.86-13.78l-1.52-1.67c-1.12-1.12-1.98-2.31-3.2-3.34-2.32-1.96-5.35-3.34-9.4-3.53-.65-.03-.7-.14-1.45-.15-.53,0-1.07,0-1.6,0-1.07,0-2.13,0-3.2,0-1.23,0-1.96-.15-3.05-.15l-6.4-.14c-1.13,0-2.02-.24-2.99-.09-2.3.36-2.55-.09-5.48,1.06-1.81.71-6.21,3.51-8.16,4.78-2.63,1.72-5.44,3.15-6.11,6.83-.19,1.04-1.83,10.27-1.83,11.11h0ZM232.38,61.62c2.4,0,2.5,0,4.91.61,1.13.28,2.27.57,3.45.91.92.26,2.6.69,3.24,1.12.77.51,1.33,1.78,1.33,3.03v14.97c0,.9-.47,1.76-.95,2.24-.52.52-1.33.87-1.96,1.24l-8.57,4.37c-4.99,2.49-4.85,2.3-9.93-.24-3.86-1.93-6.07-2.34-6.2-8.04l-.28-5.09c0-2.15-.9-5.53.6-7.82,1.04-1.58,4.77-3.24,6.51-4.24,1.66-.96,6.21-3.05,7.85-3.05h0ZM204.04,46.36c0,3.24,3.04,2.53,5.09,2.47l2.47-.15c.63-.03.53-.11,1.16-.15.42-.02.88.03,1.3,0,.66-.05,1.69-.07,2.46-.16,4.34-.48,3.84-.97,5.44-5.02.26-.67.46-1.32.67-1.95l2.05-5.8c1.13-2.59,3.98-2.46,7.49-2.97,1.61-.23,3.18-.5,4.59-.11,1.38.39,2.3,1.19,3.32,1.91,1.02.73,2.06,1.37,3.09,2.14.94.7,1.94,1.67,2.23,3,.4,1.84.05,9.67.21,11.56.12,1.4.49,2.77-1.46,2.77-1.43,0-8.66-3.34-14.82-3.34-2.31,0-8.05,2.31-9.93,3.15-4.32,1.92-14.08,5.91-16.55,9.61-1.74,2.6-1.7,6.41-1.86,9.62l-.3,4.64c-.07.85-.17,2.25-.26,3.08-.06.52.01,1.05-.03,1.57-.05.57-.14.71-.14,1.46,0,2.02-.45,3,.37,5.88.3,1.04.52,1.52.98,2.36.82,1.5,1.86,2.53,3.18,3.51l11.21,8.41c1.96,1.43,4.71,1.49,7.23,1.49,2.04,0,4.32-1.21,5.71-1.99,1.69-.95,3.32-1.74,5.09-2.61l6.29-3.3c.93-.47,3.55-1.98,4.27-1.98.48,0,.47.4.61.85.6,1.99,2.11,3.07,3.69,4.3l6.05,5.14c.34.3.47.45.9.7,2.77,1.65,4.3.42,6.92-1.1.47-.27.9-.5,1.4-.78,1.82-1.02,4.89-2.33,4.42-3.88-.25-.83-1.32-1.72-1.99-2.24l-4.02-3.39c-2.59-2.31-2.96-2.02-2.38-6.08.46-3.22.7-8.88,1.14-12.37.34-2.71.55-7.02.89-9.43.36-2.53.54-6.97.87-9.3.38-2.66.54-6.93.89-9.42l.5-6.62c0-2.36-.93-4.3-2.12-5.88l-1.48-1.72c-.34-.37-.42-.57-.79-.95l-3.91-4.08c-1.69-2.12-3.84-3.95-6.37-4.96-.77-.31-1.48-.57-2.41-.79-1.77-.41-1.43-.22-2.93-.42-3.64-.47-8.94.14-12.58-.36l-6.21-.19c-5.24.29-7.59,1.95-11.6,4.53-8.92,5.76-7.64,4.5-9.62,16.39-.14.82-.44,2.07-.44,2.91ZM103.04,61.62c3.32,0,5.24.75,8.17,1.57,2.62.73,4.47,1.04,4.47,4.39v14.53c0,1.02-.37,1.77-.84,2.35-.55.66-3.2,1.85-4.1,2.3l-6.44,3.3c-1.3.73-2.84,1.79-4.75,1.79-2.28,0-3.59-1.15-5.18-1.94-3.92-1.94-6.26-2.36-6.3-8.23-.01-2.05-.27-3.27-.28-5.1-.02-2.26-.88-5.52.66-7.76.59-.86,1.09-1.13,2-1.64l3.44-1.94c.42-.24.71-.42,1.22-.67,2-.99,5.82-2.95,7.94-2.95h0ZM74.41,46.51c0,2.09,1.78,2.67,3.76,2.45,2.53-.29,10.16-.43,11.46-1.04,1.49-.7,1.91-2.17,2.46-3.79.39-1.15,2.73-8.29,3.33-9.17,1.04-1.53,2.21-1.54,4.36-1.89,2.51-.4,3.7-.66,6.31-.66,1.88,0,5.03,2.43,6.58,3.59.44.33.77.5,1.21.83,2.74,2.05,2.09,5.64,2.09,10.12,0,1.24-.09,2.87,0,4.06.14,1.63.58,2.91-1.61,2.91-.73,0-2.66-.78-3.36-1-3.2-1.02-7.75-2.34-11.17-2.34-2.33,0-7.54,2.1-9.84,3.09l-4.4,1.99c-3.07,1.37-7.46,3.42-9.96,5.3-3.15,2.36-3.93,4.81-4.13,8.8l-.48,8.24c-.17,1.25-.18,2.68-.25,4.11-.15,2.89-.66,4.84.31,7.83.69,2.15,1.87,3.8,3.49,5.08,1.57,1.24,11.29,8.66,12.52,9.27,2.32,1.16,4.65,1.3,7.2,1.04,1.39-.14,2.19-.56,3.27-1.09l11.53-5.91c.97-.49,5.36-2.86,5.86-2.86.67,0,.48.98,1.02,2.03.65,1.27,3.72,3.42,4.9,4.55l3.38,2.87c2.69,2.07,3.63,3.43,7.6,1.21l5.36-3.07c2.94-1.77,2.05-2.66-.8-5.07-.29-.25-.35-.24-.65-.52-.42-.39-.74-.64-1.17-1.01-.78-.68-1.51-1.23-2.31-1.9-2.14-1.8-2.21-2.14-1.73-5.56l.58-6.1c.35-2.49.52-6.95.87-9.45.48-3.38.73-9.27,1.19-12.48.32-2.23.53-6.87.87-9.3l.79-9.68c0-2.86-1.56-5.72-3.3-7.45l-3.42-3.7c-.55-.66-1.22-1.18-1.81-1.82l-1.74-1.89c-3.49-3.51-8.09-4.18-13.84-4.18-5.26,0-10.27-.29-15.7-.29-1.47,0-3.46.51-4.55.97-1.96.83-6.65,3.78-8.68,5.13-.98.66-1.55.93-2.5,1.71-2.48,2.04-2.78,2.95-3.35,6.39-.2,1.19-1.56,8.61-1.56,9.63h0ZM3.2,102.17c1.54,0,10.86-.04,11.34-.29,1.24-.62.8-2.37,1.03-4.49.21-1.88.3-5.78.54-7.89l.46-7.82c.03-3.81.6-9.05.72-13.24l.29-3.78c.04-.46-.01-.98,0-1.45.02-.66.1-.62.14-1.17.04-.46,0-.99,0-1.45l.26-3.81c.26-1.94-.1-2.82,1-6.12,1.34-4.02,1.87-3.84,4.83-6.21,6.36-5.09,5.21-4.19,13.68-4.19,3.08,0,3.91,1.16,6.52,3.07,3.87,2.84,2.87,3.01,3.24,6.35.16,1.39.13,3.06.12,4.67,0,.97.13,1.38.15,2.17.02.8,0,1.66,0,2.48l.14,7.12c0,1.02.15,1.38.15,2.32,0,3.32.15,6.14.14,9.45,0,.96.15,1.25.15,2.17l.28,16.72c.08,6.71,1.67,5.66,10.47,5.66,3.69,0,3.03-4.07,3.2-6.24l.26-3.52c.07-.66-.03-1.33.04-1.99l.86-14.55c.04-3.89.54-7.14.57-10.91l.74-10.89c.16-6.54,1.76-9.4-2.1-14.77-1.22-1.7-6.78-9.12-7.99-10.03-.92-.69-1.9-1.05-3.43-1.07-1.27-.02-2.84-.31-4.32-.11-2.66.36-6-.05-8.91.1l-4.32.19c-1.39.18-2.49.31-3.77.74-3.47,1.16-5.21,3.6-7.36,6.15-.7.83-1.76,2.37-2.43,2.37-.98,0-.53-2.16-.44-4.07l.6-8.55c.07-.64.07-1.7.19-2.43.29-1.95.41-6.25.52-8.49.03-.63.11-.53.15-1.16.02-.42-.03-.88,0-1.3l.29-3.64c.03-3.4,1.22-7.07-1.76-8.13-.22-.08-.64-.13-1.2-.16h-3.49c-2.04.05-4.19.15-5.33.15-1.76,0-3.2.15-5.09.14C.43.28.03,1.88,0,4.77v7.14c.03.77.15,1.23.15,2.18v7.85c0,1.02.14,1.45.15,2.32v7.85c0,1.76.14,3.2.14,5.09,0,1.74,0,3.49,0,5.23,0,1.81.15,3.1.15,4.94v5.23c0,1.89.15,3.26.15,5.09,0,11.98.44,24.16.44,36.04,0,.93.04,7.08.28,7.56.26.51.98.86,1.75.86h0Z" style="fill: #ee3124; fill-rule: evenodd;"/>
      <path d="M372.77,101.88l7.42-.14c1.05,0,1.48-.23,2.06-.7,1.79-1.48,1.55-4.83,1.74-6.55.17-1.57.22-3.56.39-5.13l.31-5.06c0-.99.11-1.55.14-2.62.02-.66.1-.62.14-1.17.04-.47-.02-.97.02-1.44l.42-6.41c.02-.85.3-2.49.3-3.92,0-1.55.36-4.69.43-6.25l.29-5.23c.02-.82.29-2.5.29-3.92,0-1.62.36-3.48.97-4.55,1.12-1.99,3.81-3.76,5.8-5.25l3.08-2.45c2.28-2.2,7.08-1.25,9.92-1.27,1.83-.01,3.05.36,4.21,1.02,1.03.59,1.87,1.65,2.73,2.5l2.44,2.79c.56,1.16.36,3.12.36,4.73,0,1.89.15,3.26.15,5.09,0,1.74,0,3.49,0,5.23,0,1.82.14,3.19.14,5.09,0,3.56.15,6.62.15,10.17,0,1.89.15,3.24.15,5.09,0,1.68-.16,3.55.08,5.15l.21,10.11c0,1.8.16,3.24,1.05,4.19.85.91,2.57.9,4.33.9,3.89,0,5.94.59,6.84-2.9.44-1.71,1.17-11.69,1.49-14.21.11-.88.18-1.91.26-2.94.14-1.8.44-3.85.57-5.68l2.12-23.16c.14-.98.13-1.83.23-2.82.08-.73.22-2.2.21-2.91-.05-2.13-.37-3.53-1.24-4.97-.78-1.3-1.78-2.49-2.74-3.66-1.32-1.62-5.16-6.45-6.39-7.71-1.81-1.86-2.97-3.89-7.3-3.89-.77,0-1.55,0-2.33,0-1.02,0-1.45.14-2.32.15-.77,0-1.56-.01-2.34-.01-.94,0-1.3.16-2.32.15l-4.57.23c-1.66.25-2.44.02-4.22.72-1,.39-2.24,1.15-2.86,1.93-.97,1.22-4.66,5.31-5.89,6.32-.47.39-.91.76-1.65.82-.75-1.12-.38-2.23-.3-3.2.1-1.19-.03-1.69.24-3.54.09-.62.2-1.86.21-2.41.08-3.01,0-5.09-4.8-5.09h-10.61c-3.09,0-4.05,1.31-4.08,4.06l-.12,2.6c.27,3.3.13,7.24.13,10.78v21.8l.15,32.55c0,1.81-.13,3.63.53,4.85.62,1.14,1.7,2.13,3.39,2.13h0ZM509.53,42.58c0,1.29,4.91,14.63,5.76,16.33.62,1.24,1.69,2.01,2.94,2.58,2.69,1.24,13.6,4.05,17.28,4.95l8.72,2.33c2.23.61,6.57,1.45,8.06,3.13,1.29,1.45,4.76,10.01,4.76,11.96,0,2.89-.99,4.07-3.34,5.23-1.74.86-3.36,1.75-5.09,2.61-.85.42-1.63.82-2.52,1.26-.96.48-1.67.8-2.66,1.26-2.24,1.04-3.14,1.85-5.92.88-.59-.21-.78-.35-1.3-.59-.5-.23-.82-.33-1.31-.58-.93-.47-1.69-.84-2.62-1.31l-5.04-2.66c-.7-.36-1.47-1.18-1.99-1.79-.37-.44-.45-.59-.88-1.01-1.21-1.19-3.53-4.61-5.27-4.61s-5.62,2.31-7.31,3.15l-4.96,2.6c-.38.23-.49.23-.77.54-1.76,1.91,1.59,3.98,2.76,5.16,1.69,1.7,5.7,5.45,7.48,6.77,1.54,1.14,2.51,1.92,4.66,2.46,3.69.93,7.35,1.98,11.16,2.93,3.21.8,8.86,2.7,12.12,2.7.77,0,2.1-.62,2.71-.92,2.6-1.25,5.41-2.13,8.04-3.3l7.98-3.36c1.39-.56,3.75-1.57,4.68-2.73.55-.69.95-1.61,1.28-2.5.89-2.4,4.82-16.1,4.82-17.85,0-2.8-.45-3.64-1.81-5.9l-3.6-5.99c-1.21-1.87-2.26-4.35-4.12-5.62-1.47-1.01-17.04-4.81-20.14-5.73-1.69-.5-3.3-.88-5.02-1.38-2.62-.76-7.83-1.69-9.62-3.31l-.23-.21s-.05-.05-.07-.07c-.07-.07-.31-.37-.39-.48-.24-.37-.37-.74-.47-1.13-.19-.71-.41-2.11-.46-2.89-.05-.89-.1-2.07-.23-2.96-.08-.55-.03-.98-.08-1.52-.34-3.17.33-3.48,2.92-4.97,1.38-.79,7-4.35,8.58-4.35,2.41,0,4.13.67,6.25,1.6,1.78.79,5.71,2.13,7.1,3.07,1.63,1.1,2.23,5.79,4.38,5.79,1.94,0,7.35-3.32,9.69-4.55,1.29-.68,2.9-1.69,1.99-3.34-.97-1.77-4.01-5.28-5.32-6.89-1.74-2.14-1.71-2.5-4.99-3.15l-16.91-3.44c-2.49-.5-4.25-.91-6.66.05l-17.14,7.71c-2.03,1.02-1.88,1.45-2.98,3.27-.43.7-.71,1.35-1.09,2.11-.88,1.76-3.83,6.7-3.83,8.67h0ZM168.87,101.44c3.59,0,3.88.42,7.09,1.06,3.77.76,4.9-5.8,5.64-8.39l17.62-61.3c.77-2.74,3.71-9.56-1.57-9.56-4.14,0-8.91-.67-10.7,2.53-.28.51-.5,1.32-.67,1.95-.19.67-.42,1.38-.63,2.13l-3.64,12.49c-.84,2.82-1.62,5.46-2.44,8.32l-9.15,31.1c-.57,2.01-1.93,2.16-2.35.29l-1.24-6.9c-1.17-5.85-2.16-12.32-3.27-18.24-1.14-6.03-2.1-12.37-3.27-18.24-.6-2.99-1.07-6.03-1.65-9.11-.45-2.39-.47-4.74-2.35-5.64-1.78-.85-5.84-.35-7.53-.61-1.15-.17-5.99-.06-7.79-.06-2.77,0-3.09,1.6-2.53,3.84l15.7,62.64c.4,1.58,2.17,9.94,3.15,11.09,2.58,3.05,7.77.62,11.59.62h0ZM273.37,50.14v49.27c0,6.6,3.05,5.67,10.03,5.67,4.13,0,3.7-4.56,3.95-6.95l3.75-42.75c.14-2.47.89-5.93-.18-7.22-1.06-1.28-1.97-1.2-4.18-1.2l-10.8.24c-1.55.31-2.57,1.4-2.57,2.95h0ZM282.23,40.55c2.93,0,4.71-.3,7.12-2.03,1.34-.96,2.83-2.84,3.45-4.4,1.1-2.79,1.24-5.82-.1-8.54-.62-1.26-1.18-2.12-2.15-3.09-4.2-4.2-10.84-4.23-14.97-.07-3.22,3.24-3.93,7.13-2.42,11.5.25.73.51,1.13.88,1.73.66,1.07,1.54,1.97,2.5,2.74,1.32,1.06,3.83,2.16,5.69,2.16h0ZM576.67,31.68c0-12.03,16.28-12.02,16.28,0,0,6.38-6.09,10.26-11.48,7.85-.44-.2-.94-.46-1.31-.72-2.11-1.53-3.48-4-3.48-7.12ZM574.35,30.52c0,2.3-.03,3.7,1.01,5.82,3.39,6.86,12.25,7.46,16.83,2.87.48-.48.73-.77,1.14-1.33,1.67-2.3,1.95-4.25,1.95-7.06,0-5.26-4.64-10.03-9.88-10.03-3.31,0-5.67.66-8.03,3.02-1.63,1.63-3.01,4.17-3.01,6.72h0Z" style="fill: #ee3124; fill-rule: evenodd;"/>
      <path d="M585.25,30.81h-2.47v-3.34c2.47,0,4.8-.46,4.8,1.74,0,1.22-1.1,1.6-2.32,1.6ZM580.74,37.64h2.03v-5.09c2.45,0,1.44-.31,3.23,2.44.57.89,1.08,1.71,1.57,2.64h2.18c-.14-.59-1.15-2.09-1.54-2.68-.59-.89-1.09-1.71-1.66-2.56,1.96-.46,3.05-1.05,3.05-3.34,0-4.19-4.78-3.34-8.87-3.34v11.92Z" style="fill: #ee3124; fill-rule: evenodd;"/>
    </g>
  </g>
</svg>