<?xml version="1.0" encoding="UTF-8"?>
<svg id="Layer_2" data-name="Layer 2" xmlns="http://www.w3.org/2000/svg" viewBox="0 0 227.55 227.55">
  <g id="Layer_1-2" data-name="Layer 1">
    <path d="M113.78,0C50.94,0,0,50.94,0,113.78c0,62.83,50.94,113.77,113.78,113.77s113.77-50.94,113.78-113.77C227.55,50.94,176.62,0,113.78,0ZM191.69,191.69c-19.95,19.94-47.48,32.28-77.92,32.28s-57.97-12.33-77.92-32.28C15.92,171.75,3.59,144.21,3.59,113.78S15.92,55.81,35.86,35.86C55.81,15.92,83.35,3.59,113.78,3.59s57.97,12.33,77.92,32.27c19.94,19.95,32.27,47.49,32.27,77.92s-12.33,57.97-32.27,77.92ZM90.97,140.84c.91.07,1.89.34,2.55.64.31-3.12.84-6.42,1.62-9.36,1.98-5.79,3.32-12.32,1.93-18.82-1.52-5.68-3.39-11.05-7.68-15.93,5.47-1.07,10.51-4.18,15.56-6.31,5.83-2.95,10.54-2.9,11.02-3.3,1.2-.91-.65-1.55-.54-2.51,1.83-1.54,4.16-2.28,6.31-3.34.82-.58,1.88-1.33,1.88-2.48-.17-.73-.89-.88-1.64-.68-2.27.86-4.84.92-7.33,1.33-3.61.58-5.87,5.26-10.84,6.43-6.49,1.6-12.29,4.46-19.14,4.55-1.95-.16-4.44-.4-5.93-1.64,2.83-.77,8-.47,11.67-3.87,1.45-1.25,9.54-9.93,16.07-10.91.63-.17,1.9-1.1,1.74-2.1-.08-.57-.6-.74-1.07-.93-.64-.15-1.11.12-1.67-.15.21-.91,1-1.8,1.46-2.5,1.55-2.09,4.93-3.61,3.9-6.42,0,0-1.37.6-1.94.8-5.01,1.7-8.59,6.02-12.24,10.15-7.33,8.21-18.18,9.08-18.18,9.08,3.51-12.72,13.58-26.57,26.67-31.1,9.18-2.73,19.99-1.92,28.93.91l.76.55c4.26,3.29,7.87,7.59,10.31,11.96,3.32,7.35,5.09,16.57,2.78,24.92l.2.13c1.39-1.72,9.95-16.36,2.4-33.02-4.8-11.32-15.92-20.1-26.66-25.03-1.33-.65-4.35-1.78-4.35-1.78,7.66.86,14.94,1.94,22.51,5.69,7.58,3.7,18.54,10.71,24.01,23.49,4.15,9.62,1.89,21.62-2.37,30.46l.16.12c5.33-3.71,9.97-8.84,12.37-14.64,4.23-8.55,3.44-20.09-.63-29.37-4.06-9.26-13.13-18.75-24.29-24.57-14.69-7.15-31.6-9.11-49.47-6.88-12.46,1.47-33.82,7.85-48.1,18.65-15.72,11.89-27.52,27.81-33.4,45.01-6.32,20.12-.97,42.3,9.99,58.66l.35,9.95c1.21,12.86,1.21,26.26,7,37.21,2.66,4.61,6.63,9.41,11.88,10.81,5.25,1.37,11.14-.26,14.37-4.92,5.45-8.59-2.98-22-2.98-22,3.12,1.87,6.22,3.86,9.36,5.7,26.93,14.84,56.56,23.11,87.81,27.45v-.13c-25.38-8.91-42.23-20.61-42.23-20.61,15.09,4.34,31.65,6.86,48.17,7.72l.29-.15c-7.07-1.47-13.66-3.94-20.4-6.23-20.06-7.87-41.44-20.24-52.91-40.7ZM132.71,16.94c8.38,1.86,16.11,4.33,23.2,9.25,13.4,9.19,23.14,22.86,21.23,40.11-.34,2.96-1.29,5.89-2.74,8.41,1.77-13.61-1.77-26.01-14.12-40.1-10.49-12.02-27.62-17.53-27.62-17.53l.04-.14ZM91.28,139.17c-2.12-.3-4.91-.5-6.94-.22l.88-1.19c2.19-.41,4.44-.26,6.17.43l-.11.99ZM47.76,168.37c-.79-.88-1.79-1.55-1.79-2.6,1.93,1.86,4.57,3.68,6.74,4.98-.07,3.12.24,6.17.55,9.09-.8-1.36-1.4-2.86-2.23-4.07l-1.27-2.24c.61-.29,1.57-.35,1.9-1.16,0-1.94-2.55-2.5-3.9-4.01ZM49.95,167.26c-1.14-1.02-2.41-1.94-3.25-3.32.02-.69.81-1.32,1.36-1.5,1.16,1.47,3.2,2.12,4.22,3.71.99,1.17.78,2.17.9,3.03-1-.09-2.31-1.34-3.22-1.92ZM52.41,164.44c-1.1-.64-2.27-1.45-3.08-2.52.99-.62,2.69-1.88,3.48,0-.22.82-.1,1.8-.41,2.52ZM44.28,164.09c-.79,2.86,2.24,5,4.21,6.64.58.43,1.35.7,1.71,1.27-.22.57-1,.41-1.39.25-1.76-.9-4.41,1.58-5.44-.66-.56-3.66-2.45-6.22-3.14-8.41.08-1.74,2.61-.91,3.85-1.68,4.6-1.4,6.27-6.52,10.19-9.16,2.62-1.83,5.75-3.45,8.91-3.79-.19,1.59-6.67,6.88-7.9,7.68-3.48,3.01-8.21,3.9-10.99,7.87ZM43.23,78.18c-.85,1.97-1.85,3.85-2.71,5.81-1.86,4.16-3.48,8.85-5.02,13.18,0,0-4.41-22.11,5.36-41.43-1.91,8.55-.51,15.79,2.37,22.43ZM44.24,80.51c4.1,8.07,10.11,12.83,12.78,17.67,0,0-8.22,6.84-14.76,21.66,0,0-3.99-6.39-5.97-18.36,0-2.55,4.52-16.14,7.95-20.97ZM61.95,62.48c5.43.67,7.69-1.57,9.14.16.31.38.38,1.03.07,1.36-2.91,2.6-7.65-1.57-10.12,2.49-.89,4.07-.04,9.91-4.98,11.35,2.43-5.56-2.89-15.15,5.89-15.36ZM67.3,80.38l1.21-.47c-.18.75-.46,1.36-1.06,1.89-3.3-1.48-4.62-3.49-5.53-5.95-.36-1.44-.32-2.99.8-4.04,1.03-1.01,2.64-.65,3.44-.07.78.55.78,1.76.78,2.43s-.27,2.12-1.51,3.91c0,0,.68.86.93.68.49-.32,1.26-1.11,3.41-1.53-.11.61-.53,1.77-.91,1.71-.57-.07-1.78.43-2.02,1.02,0,.29.24.43.45.43ZM67.67,76.57c.45-1.16.57-3.02.29-4.26.49-.02,1.18.24,1.68.41.35.67.84,1.83,1.07,2.84-.95.14-2.23.76-3.04,1ZM68.3,68.27c-.94-.36-2.45-.77-3.68-1.44.07-.48.66-.77,1.08-.72,1.68.26,4.11.18,4.94.43.63.22.34,1.55.11,1.87-.63.6-1.53.2-2.45-.14ZM69.09,100.1c6.23,3.38,14.02,4.77,18.18,11.79-.62-.07-1.23-.27-1.98-.55-3.92-1.79-6.23-6.25-10.62-6.78-5.87-.99-12.33-2.51-15.28-8.55-2.37-4.33-3.54-10.68-1.14-16.34,0,5.25,1.92,16.41,10.84,20.42ZM59.9,83.94c1.99,3.47,5.13,7.74,8.58,10.1,2.55,1.97,5.54,2.96,8.59,3.68,4.07,2.98,7.75,6.68,9.79,11.17-6.39-8.26-18.53-7.49-24.17-16.51-1.32-2.33-2.41-5.79-2.79-8.44ZM80.1,115.83c.7-1.01.98-2.23,1.34-3.34.64.27,1.18.8,1.83,1.22-.53,1.25-1.78,2.25-2.31,3.45-2.5,4.13-4.03,8.58-5.13,13.22-.78-.03-1.66,0-2.59.11.63-1.11,1.67-3.73,2.18-5.69.54-3.38,2.16-6.37,4.69-8.97ZM77.05,107.7l.1-.37c.96.42,1.82,1.28,2.09,2.22.64,1.88.21,4.04-.67,5.72l-.36-.33c-.5-2.4-.95-4.73-1.16-7.24ZM80,122.76c-.98,2.54-2.3,8.01-2.3,8.01l-.7-.18s.66-3.22,1.71-5.86c1.32-3.4,3.05-7.47,5.54-10.25l.33.33c-1.95,2.52-3.44,5.08-4.57,7.94ZM85.42,115.71l.28.49c-.65.97-1.38,2.07-1.9,2.9-1.61,2.56-3.15,8.01-4.09,12.35l-.6-.21c.72-5.34,2.42-11.07,6.31-15.53ZM71.34,130.38c-.5.77-.89,1.68-1.58,2.23-1.35-1.54-1.89-3.77-2.79-5.67-2.9-7.62-5.36-15.7-4.68-24.69l.14-.16c3.85,2.41,8.49,2.78,12.72,4.31.4,3.78,1.2,7.28,1.91,10.92-3.7,3.64-2.71,9.16-5.7,13.07ZM66.76,146.25s5.14-6.73,5.14-11.54c3.41-1.06,8.75.53,11.08,2.72-4.16,5.19-10.11,7.78-16.22,8.82ZM81.16,141.77c-1.34,3.65-6.45,9.77-11.21,10.81-3.83,1.28-7.98,2.13-11.73,3.3,2.49-2.34,4.98-5.08,7.34-7.67,5.51-.91,11.47-2.85,15.59-6.44ZM81.79,134.87c-2.43-1.22-5.51-1.8-6.85-1.82-1.39-.04-3.35.13-3.35.13,0,0,.68-.91.92-1.41,2.63-.55,6.98.83,7.55,1,.58.24,3.08,1.57,4.49,2.5l-.6.95s-1.3-.95-2.16-1.36ZM81.33,132.12c.43-5.22,1.94-10.2,4.93-14.46,1.59,3.49,1.73,8.24.75,12.08-.45,1.76-1.03,3.28-1.93,4.56-1.18-.79-2.37-1.58-3.74-2.18ZM58.52,125.3c-2.83,7.55-6.5,11.35-6.5,11.35-1.34-1.22-7.37-11.11-8.97-14.62,1.11-3.7,3.23-6.95,5.08-10.34,2.69-4.28,5.74-8.63,9.51-12.13.9,1.19,1.41,2.83,2,4.32,2.25,7.74,1.69,13.82-1.12,21.42ZM58.92,147.84c-.82.71-1.85.96-2.81,1.39-3.47,1.46-7.63,7-7.63,7-1.64-1.58-3.58-3.36-4.97-5.06,2.02-4.27,5.19-8.41,7.96-12.34,0,0,4.92,6.2,7.45,9.02ZM42.58,152.58l4.92,4.82s-1.43,2.28-5.18,3.15l-2.49-2.51c.68-1.93,2.75-5.45,2.75-5.45ZM73.36,152.64c5.22-2.05,7.57-7.83,10.15-12.05,1.91-.58,4.98-.24,6.02,0-2.41,7.07-6.39,13.3-11.51,15.63-6.59,3.46-14.09.99-20.78,1.4,0,0,8.46-1.9,16.13-4.98ZM91.5,136.92c-1.74-.51-3.87-.68-5.65-.39.64-1.09,1.28-2.11,1.68-3.2,1.82-4.44,1.52-7.34,1.43-9.95-.04-1.52-.1-2.72-1.43-6.93,1.11.81,3.53,1.25,3.53,1.25,1.87,5.93,1.37,13.39.43,19.21ZM93.76,130.62c.43-4.34-.53-8.88-1.61-12.84,1.37,0,2.62-.44,3.8-.98.44,4.67-.7,9.67-2.19,13.82ZM95.42,112.85c-1.33,1.04-3.68.68-5.24.28-1.58-5.72-5.86-11.08-10.54-15,0,0,5.58.33,7.82-.24,4.42,4.18,6.34,9.52,7.96,14.96ZM90.41,91.94c7.35-2.62,15.28-2.95,21.21-8.59,2.43-2.68,6.28-1.7,9.26-2.76.16.41-.38.55-.67.69-2.62.7-5.15,1.79-7.14,3.69-.03.96,1.42,1.03,1.42,1.77-.04.46-2.86.43-3.77.69-10.95,2.87-18.43,10.36-30.96,9.08-5.15-.22-9.55-2.53-13.12-6.28-2.75-3.17-5.53-6.56-6.81-10.54,6.04,2.39,11.83,6.53,16.98,10.76,3.64,2.89,9.29,2.75,13.6,1.5ZM97.97,74.38c3.02-3.43,6.24-7.7,10.44-9.16-.42,1.3-1.88,1.86-2.64,2.9-.83,1.13-1.95,2.31-1.73,3.88.69.65,2.11.55,2.52.69.74.29-.2.7-.2.7-7.6.6-12.35,8.2-18.47,12.28-3.13,2.19-7.25,2-10.96,2.75-2.23-1.62-4.03-2.83-5.63-4.12,10.44.32,20.09-1.86,26.67-9.92ZM76.81,82.8s-4.86.66-7.83-.57c.33-.56,1.8-3.48,2.06-5,.52-.09.96-.09,1.47-.16.02-.38.3-1.08.11-1.44-.6-.39-1.18-2.23-1.44-2.84.06-.71,1.54-.86.51-2.31.53-.3.82-1.01.75-1.92,7.67-7.65,16.32-13.2,27.37-16.77-13.63,8.05-19.41,20.1-22.99,31.01ZM151.67,67.51c.81,3.06.25,9.06-.74,12.52-1.01-14.69-10.7-24.52-10.7-24.52,5.01,2.61,8.84,7.73,11.45,11.99ZM122.38,32.92c11.99,5.67,24.62,14.68,28.13,29.35-1.97-2.28-4.74-5.08-7.35-7.04-4.81-3.51-9.43-5.02-9.43-5.02,0,0-9.33-7.46-33.1-8.24-16.63-.53-33.99,9.82-33.99,9.82,13.81-11.68,29.23-19.52,47.11-21.54,0,0,5.72,1.2,8.63,2.67ZM74.36,29.61c11.07-2.42,26.36-2.48,35.68-.32-16.66,2.67-27.65,8.42-39.45,16.66-12.76,8.83-24.74,26.53-26.43,30.73-4.03-8.56-3.08-26.15,4.3-34.17,7.32-7.96,12.17-9.92,25.9-12.91ZM30.16,133.88s-6.97-11.3-8.89-20.7c-2.57-12.42-3.46-19.2-.32-31.72,3.25-13.05,11.94-24.89,13.77-27.32,1.81-2.42,10.26-13.44,15.35-16.18-11.96,13.72-20.97,35.65-15.6,62.93-3.97,12.05-4.3,32.98-4.3,32.98ZM33.86,164.3c-1.2-8.08-1.83-16.04-1.87-24.4l.09-.2,3.41,4.62c-.78,6.57-1.41,13.19-1.64,19.98ZM31.91,136.46c-.08-10.73.55-21.52,3.35-31.24.54,1.55.97,3.31,1.49,4.97,1.22,4.07,2.69,8.07,4.52,11.85-3.24,7.53-5.67,20.26-5.67,20.26l-3.69-5.83ZM36.88,146.25c1.37,1.56,3,3.3,4.56,5.09-2.1,4.2-4.01,8.43-5.75,12.75-.14-6.06.39-11.95,1.19-17.84ZM51.73,193.54c-8.39-.54-12.75-9.72-14.72-16.84-1.51-5.72-.18-12.18,2.34-17.16.62.22,1.28.87,1.51,1.51-.73.1-1.51.5-1.88,1.23-.5,2.52,1.88,4.02,2.36,6.17.92,1.59.05,4.07,2.11,5.08,1.45.87,2.92-.27,4.4-.04,4.25,5.87,6.38,12.65,8.26,19.52,0,0-1.23.68-4.39.54ZM63.75,185.97c-.59,3.32-2.91,5.26-5.46,6.37-1.69-3.45-2.48-7-3.13-10.77-.69-3.03-1.06-7.1-1.01-10.37,0,0,.93.06,1.1-.47.43-2.02-1.83-2.6-1.24-6.56l.2-1.12s1.93.87,3.63,2.67c4.06,5.92,7.21,12.64,5.89,20.26ZM146.59,197.88c-19.04-2.54-52.42-11.54-79.45-27.8-3.59-2.14-12.62-8.3-14.01-10.03,4.04-1.42,11.54-1.01,19-.43,12.16,8.76,25.27,15.49,39.47,19.38,10.82,7.65,22.04,13.85,34.98,18.89ZM130.69,182.31c-6.3-1.48-16.93-3.62-19.81-5.09-15.13-10.51-26.82-23.58-26.82-23.58,3.23-3.86,4.32-7.01,6.04-10.39,1.94,2.49,3.66,5.4,5.85,8,14.35,17.08,34.72,27.24,54.31,34.12,0,0-13.6-1.87-19.57-3.06ZM109.29,116.57c0-8.87,6.81-14.76,14.72-14.76,8.41,0,14.76,6.51,14.76,14.6s-6.35,14.61-14.79,14.61-14.68-6.65-14.68-14.42v-.03ZM113.74,116.41c0,5.86,4.34,10.65,10.34,10.65s10.19-5.13,10.19-10.61-4.07-10.69-10.23-10.69-10.31,4.94-10.31,10.61v.04ZM141.77,102.34h3.57l-3.34,7.88h-3.08l2.85-7.88ZM167.32,123.75l-.08-21.42h4.34v28.15h-4.11l-14.71-21.45.08,21.45h-4.34v-28.15h4.22l14.61,21.42ZM176.6,121.4c.19,4.18,3.83,6.31,6.95,6.31,2.77,0,4.83-1.33,5.97-3.5h4.1c-.99,2.28-2.43,3.99-4.18,5.13-1.75,1.17-3.8,1.75-5.9,1.75-6.76,0-10.95-5.44-10.95-10.91,0-5.94,4.64-10.99,10.91-10.99,2.96,0,5.67,1.11,7.64,3.04,2.43,2.48,3.46,5.71,3.12,9.17h-17.68ZM190.37,118.31c-.19-2.73-2.93-5.81-6.84-5.74-4.03,0-6.66,2.93-6.85,5.74h13.69ZM195.3,102.34h3.96v4.18h-3.96v-4.18ZM195.3,109.79h3.96v20.69h-3.96v-20.69ZM201.58,102.34h3.96v28.15h-3.96v-28.15ZM207.85,102.34h3.95v28.15h-3.95v-28.15Z" style="fill: #231f20;"/>
  </g>
</svg>