<?xml version="1.0" encoding="UTF-8"?>
<svg id="Layer_2" data-name="Layer 2" xmlns="http://www.w3.org/2000/svg" xmlns:xlink="http://www.w3.org/1999/xlink" viewBox="0 0 439.68 51.07">
  <defs>
    <linearGradient id="Gradiente_sem_nome_16" data-name="Gradiente sem nome 16" x1="4.56" y1="25.54" x2="434.55" y2="25.54" gradientUnits="userSpaceOnUse">
      <stop offset="0" stop-color="#968fff"/>
      <stop offset=".52" stop-color="#3f91ef"/>
      <stop offset="1" stop-color="#18cfca"/>
    </linearGradient>
  </defs>
  <g id="logo_design">
    <path d="M40.18,4.62c5.1,3.57,8.49,8.67,10,14.24,1.12,4.16.97,7.52.43,11.41-11.82-2.6-8.42-11-16.65-16.77-6.65-4.65-15.81-3.04-20.46,3.61-3.16,4.51-3.71,10.94-.86,15.71,5.13,8.59,16.22,4.38,14.56-3.53-.59-2.82-3.04-5.23-7.25-4.98-1.5.09-.89-.65-.14-1.34,4.2-3.9,11.12-3.67,15.39.07,1.47,1.29,2.8,2.92,4.27,4.68,2.6,3.1,4.95,5.02,10.25,5.98-.76,2.26-1.85,4.44-3.29,6.49-8.09,11.55-24.01,14.36-35.56,6.27C-.66,38.36-3.47,22.44,4.62,10.89,12.71-.66,28.63-3.47,40.18,4.62h0ZM101.09,1.09h-13.28l-13.35,32.4L61.18,1.09h-13.28l20.79,48.88h.21c4.32-1.77,8.68-3.04,13.06-3.91L101.09,1.09h0ZM393.57,1.09v47.97c17.72,2.34,33.11.02,40.79-7.96,3.55-4.18,5.32-9.37,5.32-15.57,0-7.3-2.46-13.19-7.37-17.69-4.91-4.5-11.38-6.75-19.41-6.75h-19.34ZM405.61,39.55V11.53h6.86c4.57,0,8.23,1.28,10.98,3.83,2.75,2.55,4.12,5.95,4.12,10.18s-1.37,7.62-4.12,10.18c-2.75,2.55-6.41,3.83-10.98,3.83h-6.86ZM388.64,48.32l-13.85-15.7c3.99-.88,7.13-2.69,9.41-5.44,2.29-2.75,3.43-6.12,3.43-10.11,0-4.77-1.61-8.62-4.82-11.56-3.21-2.94-7.47-4.41-12.77-4.41h-24.73v43.38c3.99-.06,7.98.03,12.04.24v-11.52h3.5l11.24,12.8c5.24.61,10.72,1.39,16.55,2.32h0ZM357.35,23.13v-11.75h11.38c2.14,0,3.85.54,5.14,1.61,1.29,1.07,1.93,2.48,1.93,4.23s-.64,3.23-1.93,4.3c-1.29,1.07-3,1.6-5.14,1.6h-11.38ZM340.09,44.63L321.89,1.09h-12.33l-20.43,48.88h12.91l3.43-8.9h20.57l1.76,4.56c4.17-.49,8.24-.83,12.28-1.01h0ZM322.04,30.72h-12.48l6.2-16.05,6.27,16.05h0ZM265.7,0c7.3,0,13.46,2.48,18.5,7.44,5.03,4.96,7.55,11.02,7.55,18.17s-2.52,13.12-7.55,18.06c-5.03,4.94-11.2,7.41-18.5,7.41s-13.46-2.47-18.5-7.41c-5.03-4.94-7.55-10.96-7.55-18.06s2.52-13.21,7.55-18.17c5.03-4.96,11.2-7.44,18.5-7.44h0ZM265.7,40.06c3.99,0,7.32-1.33,10-3.97,2.68-2.65,4.01-5.97,4.01-9.95s-1.34-7.39-4.01-10.06c-2.68-2.67-6.01-4.01-10-4.01s-7.32,1.34-10,4.01c-2.68,2.67-4.01,6.03-4.01,10.06s1.34,7.3,4.01,9.95c2.68,2.65,6.01,3.97,10,3.97h0ZM227.14,24.73c1.95-.19,3.77-1.19,5.47-2.99,1.7-1.8,2.55-4.23,2.55-7.3,0-4.04-1.35-7.27-4.05-9.7-2.7-2.43-6.29-3.65-10.76-3.65h-25.32v44.72c11.77-1,22.95-.92,36.1,1.42.44-.3.86-.63,1.25-.98,2.77-2.48,4.16-5.81,4.16-10,0-3.41-.94-6.08-2.81-8.03-1.87-1.95-4.07-3.02-6.6-3.21v-.29h0ZM207.07,10.8h10.94c1.56,0,2.86.46,3.9,1.39,1.05.92,1.57,2.14,1.57,3.65,0,1.65-.54,2.98-1.61,3.98-1.07,1-2.5,1.5-4.3,1.5h-10.51v-10.51h0ZM207.07,40.27v-10.73h11.46c1.7,0,3.09.47,4.16,1.42,1.07.95,1.6,2.23,1.6,3.83,0,1.7-.52,3.04-1.57,4.01-1.05.97-2.52,1.46-4.41,1.46h-11.24ZM188.85,46.43l-12.19-13.81c3.99-.88,7.13-2.69,9.41-5.44,2.29-2.75,3.43-6.12,3.43-10.11,0-4.77-1.6-8.62-4.82-11.56-3.21-2.94-7.47-4.41-12.77-4.41h-24.73v48.88h12.04v-16.78h3.5l13.07,14.89c4.55-.62,8.86-1.19,13.05-1.66h0ZM159.23,23.13v-11.75h11.38c2.14,0,3.85.54,5.14,1.61,1.29,1.07,1.93,2.48,1.93,4.23s-.64,3.23-1.93,4.3c-1.29,1.07-3,1.6-5.14,1.6h-11.38ZM141.88,39.62h-26.05v-9.19h23.71v-9.78h-23.71v-9.19h25.83V1.09h-37.87v43.5c11.13.49,22.23,2.53,33.03,4.58,1.74.33,3.43.6,5.06.8v-10.35Z" style="fill: url(#Gradiente_sem_nome_16); fill-rule: evenodd;"/>
  </g>
</svg>