<?xml version="1.0" encoding="UTF-8"?>
<svg id="Layer_2" data-name="Layer 2" xmlns="http://www.w3.org/2000/svg" viewBox="0 0 836.74 366.4">
  <g id="Vector_Logo" data-name="Vector Logo">
    <g>
      <path d="M479.98,56.53s-18.17-19.08-38.84,1.58l-103.06,103.05s17.85,30.14,55.91,30.14h220.76L479.98,56.53h0ZM465.42,150.81l-.03-28.39c-.06-21.79-11.9-8.72-11.9-8.72l-14.12,14.14h-30.93l45.86-45.85c6.4-6.51,11.1,0,11.1,0l46.04,46.04h-23.34s-22.67,22.78-22.67,22.78h0Z" style="fill: #231f20; fill-rule: evenodd;"/>
      <path d="M449.95,37.32c-175.98-51.79-188.02,176.25-64.62,176.25l246.57-.02,31.72,31.71-469.87.03c-20.08,0-20.6-19.03-20.6-19.03v-101.02c72.39-8.99,124.2-89.91,140.57-100.33,30.12-21.15,58.75-31.25,103.14-20.68l33.09,33.1h0Z" style="fill: #231f20; fill-rule: evenodd;"/>
    </g>
    <g>
      <path d="M0,291.15s.08-10.05,11.99-10.05h87.67c11.13,0,11.08,11.41,11.08,11.41v48.5c-.05,11.17-9.26,11.17-9.26,11.17l-14.63.06c-4.26,0-5.73-3.59-5.73-3.59l-7.98-16.08c-1.58-4.49-5.4-1.91-4.02.87l11.55,23.07s1.8,3.15-1.23,4.33l-10.12,5c-3.37,1.69-4.5-1.01-4.5-1.01l-11.86-23.48c-6.66-13.5.34-23.23,9.61-27.33,8.43-3.72,19.1-2.22,22.7,4.84l8.66,17.3-.05-34.36c-.34-4.47-4.47-4.12-4.47-4.12H19.95s-3.09,0-3.09,3.44v30.58c0,4.81,4.81,4.47,4.81,4.47h25.79l7.94,16.01-43.4.06c-11.92,0-11.99-9.52-11.99-9.52v-51.58h0Z" style="fill: #231f20; fill-rule: evenodd;"/>
      <path d="M116.56,342.27s-.34,9.98,11.35,9.98h67.51c11.7,0,11.48-11.47,11.48-11.47v-41.61c-.01-2.45,3.13-2.45,3.1,0l.04,49.48c0,3.59,3.94,3.59,3.94,3.59h9.89s3.7,0,3.7-3.59l-.03-48.1c.03-21.92-18.23-19.95-18.23-19.95,0,0-19.16-2.31-19.16,19.83l-.09,31.52c0,4.17-3.27,4.29-3.27,4.29l-50.25-.06s-3.1,0-3.1-3.43v-44.89c0-7.98-8.27-7.03-8.27-7.03,0,0-8.6-.84-8.6,7.03v54.41h0Z" style="fill: #231f20; fill-rule: evenodd;"/>
      <path d="M237.59,281.06s-4.74.04-4.82,4.81l.08,62.78c0,3.59,4.05,3.59,4.05,3.59h9.97s3.52,0,3.52-3.59v-62.83c0-4.72-5-4.76-5-4.76h-7.8Z" style="fill: #231f20; fill-rule: evenodd;"/>
      <path d="M256.67,271.32c0-18.66,18.66-18.66,18.66-18.66,0,0,19.11,0,19.11,18.66v38.67l24.16-24.17c14.51-14.5,28.13,1.2,28.13,1.2,0,0,13.12,13.53-2.28,28.92l-7.2,7.2,13.04,13.03-10.79,16.08-27.43-27.42,20.35-20.34c3.48-3.48-.56-7.2-3.71-4.05l-51.81,51.82v-80.92c0-2.37-3.15-2.4-3.15,0v71.71c0,9.22-8.43,9.22-8.43,9.22,0,0-8.66,0-8.7-9.16l.05-71.76h0Z" style="fill: #231f20; fill-rule: evenodd;"/>
      <path d="M428.64,352.25h-89.12l10.79-16.08h71.37s8.76,0,8.76-8.2-9.21-8.54-9.21-8.54h-47.55c-18.99,0-18.99-16.64-18.99-19s0-19.33,18.99-19.33h73.17v16.07s-69.88.07-69.98.07c-3.19-.07-3.19,3.19-3.19,3.19,0,0,0,2.93,3.26,2.93h49.56s21.02,0,21.02,24.61-18.88,24.28-18.88,24.28h0Z" style="fill: #231f20; fill-rule: evenodd;"/>
      <path d="M572.17,352.25l-37.99-37.99c-13.83-13.83,0-27.76,0-27.76,0,0,13.6-13.26,26.99.07l38.17,38.17,33.13-43.67h22.36l-54.11,71.19-51.14-51.14c-1.68-1.57-3.26.12-1.8,1.58l49.49,49.56h-25.1Z" style="fill: #231f20; fill-rule: evenodd;"/>
      <path d="M744.13,336.17h-65.08s-3.82,0-3.82-4.49v-7.64c.3-5.51,4.04-4.61,4.04-4.61h41.71v-16.07h-43.38c-2.37,0-2.37-2.93-2.37-2.93,0,0,0-3.26,2.58-3.26h59.68v-16.07h-68.44c-13.83,0-13.83,10.23-13.83,10.23v44.4c0,16.52,13.83,16.52,13.83,16.52h92.62v-55.07h52.04c4.04,0,4.04,3.26,4.04,3.26,0,0,0,2.93-4.04,2.93h-25.06c-6.3,0-10.01,3.25-10.01,8.43s1.58,8.31,18.21,24.94l15.51,15.51h23.26l-32.82-32.81h15.52c18.43,0,18.43-15.74,18.43-19s0-19.33-19.1-19.33h-73.51v55.07h0Z" style="fill: #231f20; fill-rule: evenodd;"/>
      <path d="M457.54,281.06s-4.74.04-4.82,4.81l.09,62.78c0,3.59,4.04,3.59,4.04,3.59h9.98s3.51,0,3.51-3.59v-62.83c0-4.72-5-4.76-5-4.76h-7.79Z" style="fill: #231f20; fill-rule: evenodd;"/>
      <path d="M565.2,352.25h-67.11v-80.92c0-2.37-3.14-2.4-3.14,0v71.71c0,9.22-8.44,9.22-8.44,9.22,0,0-8.65,0-8.7-9.16l.04-71.76c0-18.66,18.66-18.66,18.66-18.66,0,0,19.1,0,19.1,18.66v64.85h33.5l16.08,16.08h0Z" style="fill: #231f20; fill-rule: evenodd;"/>
    </g>
  </g>
</svg>