<?xml version="1.0" encoding="UTF-8"?>
<svg id="Layer_2" data-name="Layer 2" xmlns="http://www.w3.org/2000/svg" viewBox="0 0 404.2 170.4">
  <g id="layer">
    <g>
      <path d="M46.4,142.8c-.5,2.7-7.7,6.3-14.6,6.3h-4.2l4.2-10.6c6.3-1,12-1.1,14.1,1.7.4.4.8,1.1.5,2.6M65,137.6c-2.2-4.1-12.1-6.5-19.8-6.5H15L0,169.8h19.3l7.5-18.7,14.9,18.7h21s-7.9-7.8-13.9-15.7c3.8-1.4,14.9-5.9,16.6-10.2.8-2,.7-4.3-.4-6.3M339,142.7c-.5,2.7-7.9,6.3-15.1,6.3h-4.3l4.6-11.2c5.3,0,12.1-.5,14.3,2.3.4.5.8,1.2.5,2.6M354,137.6c-2.2-4.1-8.3-6.5-16.2-6.5h-31.1l-15.5,38.7h20l7.6-18.5,16.7,18.5h18.9s-9.7-8.6-17.1-15.7c3.9-1.4,15.3-5.9,17-10.2.5-1.3.6-2.5.5-3.5,0-1-.3-1.9-.8-2.8M82.1,131.1l-16.2,38.7h20.5l15.9-38.7h-20.2ZM143.6,142.7c-.6,2.9-7.3,6.3-14.8,6.3h-4.5c.2-.6,2.7-6.8,4.6-11.3,6.4-.7,12.2-.5,14.3,2.4.6.8.6,2.1.4,2.6M158.3,137.6c-2.2-4.1-8.1-6.5-15.9-6.5h-30.5l-16.4,38.7h20.8l5.6-14.4h12.3c11.2,0,21.9-5,24.5-11.5.5-1.3.6-2.5.5-3.5s-.4-1.9-.9-2.8M214.4,131.1c-18.4,0-41.2,8.9-45.2,18.8-1.3,3.2-1.1,6.4.5,9.3,3.5,6.2,15.4,10.6,28.8,10.6s19.6-3.5,26.4-6.1l1.2-8.1c-3.4,2.7-16.1,7.5-25.2,7.5s-9.8-1.6-11.4-4.5c-1.4-2.5-.7-5.3.1-7.3,2.6-6.4,11.7-14.1,23.7-14.1s13.9,2.7,14.8,3.1c.9.5,2.8,1.8,2.8,1.8l3.4-7.4s-5.4-3.6-19.9-3.6"/>
      <path d="M373.1,132l-14.6,36.3c-.1.2-.1.5-.1.7h0c0,.5.4,1.4,1.1,1.4h42.1l2.6-6.4h-23.6l13.3-32h-20.8,0Z"/>
      <path d="M246.6,131.1l-9.1,21.8c-.9,2.2-1,4-.9,5.6.1,1.3.5,2.5,1.1,3.7,2.5,4.6,11.6,7.6,21.4,7.6,15.1,0,28.7-7.1,32-15.4l9.2-23.3h-9l-8.6,21.9c-1.8,4.4-10.3,8.2-18.6,8.2s-7.4-1.7-8-2.7c-.6-1.1-.1-3.2.2-4.1,0,0,9.3-23.3,9.1-23.3h-18.8Z"/>
    </g>
    <path d="M290.5,103c-19.8,0-43.7-5-62.4-13-21.3-9.1-33-20.7-33-32.7s21.8-12.5,31.3-10.6c18.9,3.8,35.3,19.4,39.8,24.1l3,3-.2-1.8c-1.7-14.9-8.3-28.8-18.8-39.5-13.4-14-33.4-23.6-59.4-28.7-35.9-7-67.8-2.9-85.9.9-1.6.3-6.5,1.6-7.6,2-.8.3-.8.5,0,.5.8-.1,2.7-.3,2.8-.3,11.8-1.6,46.6-4.1,78.4,4.2,23.2,6,35.7,12.6,49.1,22.2-6.2-1.6-17-3.8-28.8-3.8-19.2,0-39.8,5.9-39.8,22.6s7.9,21,25.5,32.2c23.2,14.8,51.2,20,70.6,21.7,23.7,2.1,43.6-.9,51.5-2.8,1.3-.3.9-.7-.4-.6-2.1,0-9.3.4-15.7.4h0Z" style="fill: #b3282d;"/>
  </g>
</svg>