<?xml version="1.0" encoding="UTF-8"?>
<svg id="Layer_2" data-name="Layer 2" xmlns="http://www.w3.org/2000/svg" viewBox="0 0 277.28 196.7">
  <g id="Layer_1-2" data-name="Layer 1">
    <g>
      <g>
        <path d="M92.71,20.29s9.28-14.23,26.7-7.09c0,0,6.93,2.17,14.28,15.19v-10.6s-3.92-11.34-16.09-13.33c0,0-13.97-1.7-29.87-.33,0,0-10.07.65-13.55-4.12l-18.27,17.45s-1.35,3.51,1.47,6.13l76.31,72.85v-11.65l-40.4-38.19s-10.51-13.41-.59-26.3" style="fill: #231f20;"/>
        <path d="M123.99,47.53l-7.06-.15,5.79-7.1-7.68-.46-4.53-5.34,16.09-.62c3.36.5,3.08,4.24,3.08,4.24l.26,14.45-5.95-5.02ZM127.44,29.75l-32.63.09s-1.2,11.01,6.37,16.57l32.54,31.02.06-37.78s1.31-8.72-6.34-9.9" style="fill: #231f20;"/>
        <path d="M196.87,0c-3.49,4.78-13.54,4.13-13.54,4.13-15.91-1.38-29.86.33-29.86.33-12.16,1.99-16.12,13.33-16.12,13.33v10.6c7.39-13.03,14.32-15.19,14.32-15.19,17.4-7.13,26.67,7.1,26.67,7.1,9.96,12.87-.56,26.29-.56,26.29l-40.43,38.19v11.66L213.69,23.57c2.83-2.62,1.47-6.12,1.47-6.12L196.87,0Z" style="fill: #231f20;"/>
        <path d="M156.02,39.83l-7.65.46,5.79,7.1-7.05.15-5.96,5.03.24-14.45s-.27-3.74,3.09-4.24l16.07.63-4.53,5.34ZM176.27,29.84l-32.65-.08c-7.65,1.17-6.35,9.9-6.35,9.9l.08,37.78,32.53-31.03c7.58-5.55,6.38-16.57,6.38-16.57" style="fill: #231f20;"/>
        <path d="M98.28,188c-16.32,0-28.62-12.33-28.62-28.67s12.3-28.68,28.62-28.68,28.51,12.33,28.51,28.68-12.25,28.67-28.51,28.67M98.28,121.95c-10.24,0-19.78,3.76-26.82,10.6-7.17,6.93-11.11,16.44-11.11,26.78s3.94,19.84,11.11,26.77c7.04,6.84,16.58,10.6,26.82,10.6s19.79-3.76,26.83-10.6c7.14-6.93,11.08-16.45,11.08-26.77s-3.94-19.84-11.08-26.78c-7.04-6.83-16.58-10.6-26.83-10.6" style="fill: #231f20;"/>
        <path d="M27.03,159.02H8.98v-26.67h18.57c7.42,0,13.01,5.62,13.01,13.08,0,7.88-5.68,13.58-13.54,13.58M50,145.44c0-6.01-2.32-11.55-6.52-15.6-4.1-3.98-9.67-6.17-15.62-6.17H0v72.01h8.98v-27.97h18.26l16.09,27.97h10.77l-17.43-29.83c8.12-3.45,13.33-11.37,13.33-20.4" style="fill: #231f20;"/>
      </g>
      <polygon points="202.23 123.3 190.9 123.3 171.35 151.38 151.69 123.3 140.02 123.3 164.51 158.03 138.5 195.31 149.73 195.31 170.93 164.89 192.32 195.31 204.1 195.31 177.85 158.13 202.23 123.3" style="fill: #231f20;"/>
      <polygon points="266.36 123.3 245.3 156.46 224.02 123.3 212.87 123.3 240.18 165.82 240.18 195.31 250.21 195.31 250.21 165.82 277.28 123.3 266.36 123.3" style="fill: #231f20;"/>
    </g>
  </g>
</svg>